<svg xmlns="http://www.w3.org/2000/svg" width="1200" height="520" viewBox="0 0 1200 520" role="img" aria-labelledby="title desc">
  <title id="title">Transistor grid</title>
  <desc id="desc">Grid pattern representing many transistors in a chip.</desc>
  <rect width="1200" height="520" fill="#102927"/>
  <g fill="#61c7bf" opacity="0.85">
    <rect x="120" y="90" width="44" height="44"/>
    <rect x="200" y="90" width="44" height="44"/>
    <rect x="280" y="90" width="44" height="44"/>
    <rect x="360" y="90" width="44" height="44"/>
    <rect x="440" y="90" width="44" height="44"/>
    <rect x="520" y="90" width="44" height="44"/>
    <rect x="600" y="90" width="44" height="44"/>
    <rect x="680" y="90" width="44" height="44"/>
    <rect x="760" y="90" width="44" height="44"/>
    <rect x="840" y="90" width="44" height="44"/>
    <rect x="920" y="90" width="44" height="44"/>
  </g>
  <g fill="#90f3eb" opacity="0.75">
    <rect x="120" y="170" width="44" height="44"/>
    <rect x="200" y="170" width="44" height="44"/>
    <rect x="280" y="170" width="44" height="44"/>
    <rect x="360" y="170" width="44" height="44"/>
    <rect x="440" y="170" width="44" height="44"/>
    <rect x="520" y="170" width="44" height="44"/>
    <rect x="600" y="170" width="44" height="44"/>
    <rect x="680" y="170" width="44" height="44"/>
    <rect x="760" y="170" width="44" height="44"/>
    <rect x="840" y="170" width="44" height="44"/>
    <rect x="920" y="170" width="44" height="44"/>
  </g>
  <g fill="#61c7bf" opacity="0.85">
    <rect x="120" y="250" width="44" height="44"/>
    <rect x="200" y="250" width="44" height="44"/>
    <rect x="280" y="250" width="44" height="44"/>
    <rect x="360" y="250" width="44" height="44"/>
    <rect x="440" y="250" width="44" height="44"/>
    <rect x="520" y="250" width="44" height="44"/>
    <rect x="600" y="250" width="44" height="44"/>
    <rect x="680" y="250" width="44" height="44"/>
    <rect x="760" y="250" width="44" height="44"/>
    <rect x="840" y="250" width="44" height="44"/>
    <rect x="920" y="250" width="44" height="44"/>
  </g>
  <text x="120" y="410" fill="#cffaf6" font-size="50" font-family="Verdana, Arial, sans-serif" font-weight="700">Billions of tiny transistor switches</text>
</svg>
